<?xml version="1.0" encoding="UTF-8" standalone="no"?>
<!DOCTYPE svg PUBLIC "-//W3C//DTD SVG 1.0//EN" "http://www.w3.org/TR/2001/PR-SVG-20010719/DTD/svg10.dtd">
<svg width="47cm" height="55cm" viewBox="279 219 923 1082" xmlns="http://www.w3.org/2000/svg" xmlns:xlink="http://www.w3.org/1999/xlink">
  <g>
    <rect style="fill: #ffffff" x="420" y="440" width="200" height="600"/>
    <rect style="fill: none; fill-opacity:0; stroke-width: 2; stroke: #000000" x="420" y="440" width="200" height="600"/>
    <rect style="fill: #ffffff" x="420" y="420" width="40" height="20"/>
    <rect style="fill: none; fill-opacity:0; stroke-width: 2; stroke: #000000" x="420" y="420" width="40" height="20"/>
    <text font-size="12.7998" style="fill: #000000;text-anchor:start;font-family:monospace;font-style:normal;font-weight:normal" x="422" y="435">loop</text>
  </g>
  <g>
    <rect style="fill: #ffffff" x="822" y="781.7" width="378" height="180.75"/>
    <rect style="fill: none; fill-opacity:0; stroke-width: 2; stroke: #000000" x="822" y="781.7" width="378" height="180.75"/>
    <rect style="fill: #ffffff" x="822" y="761.7" width="40" height="20"/>
    <rect style="fill: none; fill-opacity:0; stroke-width: 2; stroke: #000000" x="822" y="761.7" width="40" height="20"/>
    <text font-size="12.7998" style="fill: #000000;text-anchor:start;font-family:monospace;font-style:normal;font-weight:normal" x="824" y="776.7">loop</text>
  </g>
  <g>
    <polyline style="fill: none; fill-opacity:0; stroke-width: 2; stroke: #000000" points="924.15,920 1046,920 1046,800 939.15,800 "/>
    <polygon style="fill: #000000" points="939.15,795 925.15,800 939.15,805 "/>
    <polygon style="fill: none; fill-opacity:0; stroke-width: 2; stroke: #000000" points="939.15,795 925.15,800 939.15,805 "/>
  </g>
  <text font-size="12.8" style="fill: #000000;text-anchor:start;font-family:sans-serif;font-style:normal;font-weight:normal" x="1052" y="862.2">
    <tspan x="1052" y="862.2">decrease_distance()</tspan>
  </text>
  <g>
    <rect style="fill: #ffffff" x="817" y="520.75" width="378" height="180.75"/>
    <rect style="fill: none; fill-opacity:0; stroke-width: 2; stroke: #000000" x="817" y="520.75" width="378" height="180.75"/>
    <rect style="fill: #ffffff" x="817" y="500.75" width="40" height="20"/>
    <rect style="fill: none; fill-opacity:0; stroke-width: 2; stroke: #000000" x="817" y="500.75" width="40" height="20"/>
    <text font-size="12.7998" style="fill: #000000;text-anchor:start;font-family:monospace;font-style:normal;font-weight:normal" x="819" y="515.75">loop</text>
  </g>
  <g>
    <rect style="fill: #ffffff" x="460" y="220" width="119.55" height="36"/>
    <rect style="fill: none; fill-opacity:0; stroke-width: 2; stroke: #000000" x="460" y="220" width="119.55" height="36"/>
    <text font-size="12.8" style="fill: #000000;text-anchor:middle;font-family:sans-serif;font-style:normal;font-weight:normal" x="519.775" y="241.9">
      <tspan x="519.775" y="241.9">Remote   (user)</tspan>
    </text>
    <line style="fill: none; fill-opacity:0; stroke-width: 1; stroke: #000000" x1="470" y1="244.9" x2="569.55" y2="244.9"/>
  </g>
  <g>
    <rect style="fill: #ffffff" x="860" y="220" width="114.3" height="36"/>
    <rect style="fill: none; fill-opacity:0; stroke-width: 2; stroke: #000000" x="860" y="220" width="114.3" height="36"/>
    <text font-size="12.8" style="fill: #000000;text-anchor:middle;font-family:sans-serif;font-style:normal;font-weight:normal" x="917.15" y="241.9">
      <tspan x="917.15" y="241.9">Robot (LIRMIA)</tspan>
    </text>
    <line style="fill: none; fill-opacity:0; stroke-width: 1; stroke: #000000" x1="870" y1="244.9" x2="964.3" y2="244.9"/>
  </g>
  <g>
    <line style="fill: none; fill-opacity:0; stroke-width: 1; stroke-dasharray: 8; stroke: #000000" x1="917.15" y1="256" x2="917.15" y2="280"/>
    <line style="fill: none; fill-opacity:0; stroke-width: 1; stroke-dasharray: 8; stroke: #000000" x1="917.15" y1="1240" x2="917.15" y2="1300"/>
    <rect style="fill: #ffffff" x="910.15" y="280" width="14" height="960"/>
    <rect style="fill: none; fill-opacity:0; stroke-width: 2; stroke: #000000" x="910.15" y="280" width="14" height="960"/>
  </g>
  <g>
    <line style="fill: none; fill-opacity:0; stroke-width: 1; stroke-dasharray: 8; stroke: #000000" x1="519.774" y1="256" x2="519.774" y2="280"/>
    <line style="fill: none; fill-opacity:0; stroke-width: 1; stroke-dasharray: 8; stroke: #000000" x1="519.774" y1="1240" x2="519.774" y2="1300"/>
    <rect style="fill: #ffffff" x="512.774" y="280" width="14" height="960"/>
    <rect style="fill: none; fill-opacity:0; stroke-width: 2; stroke: #000000" x="512.774" y="280" width="14" height="960"/>
  </g>
  <g>
    <rect style="fill: #ffffff" x="480" y="300" width="80" height="36" rx="10" ry="10"/>
    <rect style="fill: none; fill-opacity:0; stroke-width: 2; stroke: #000000" x="480" y="300" width="80" height="36" rx="10" ry="10"/>
    <text font-size="12.8" style="fill: #000000;text-anchor:middle;font-family:sans-serif;font-style:normal;font-weight:normal" x="520" y="321.9">
      <tspan x="520" y="321.9">idle</tspan>
    </text>
  </g>
  <g>
    <rect style="fill: #ffffff" x="875" y="301" width="80" height="36" rx="10" ry="10"/>
    <rect style="fill: none; fill-opacity:0; stroke-width: 2; stroke: #000000" x="875" y="301" width="80" height="36" rx="10" ry="10"/>
    <text font-size="12.8" style="fill: #000000;text-anchor:middle;font-family:sans-serif;font-style:normal;font-weight:normal" x="915" y="322.9">
      <tspan x="915" y="322.9">idle</tspan>
    </text>
  </g>
  <text font-size="12.8" style="fill: #000000;text-anchor:start;font-family:sans-serif;font-style:normal;font-weight:normal" x="519.774" y="238">
    <tspan x="519.774" y="238"></tspan>
  </text>
  <text font-size="12.8" style="fill: #000000;text-anchor:start;font-family:sans-serif;font-style:normal;font-weight:normal" x="519.774" y="238">
    <tspan x="519.774" y="238"></tspan>
  </text>
  <text font-size="12.8" style="fill: #000000;text-anchor:start;font-family:sans-serif;font-style:normal;font-weight:normal" x="580" y="260">
    <tspan x="580" y="260"></tspan>
  </text>
  <g>
    <line style="fill: none; fill-opacity:0; stroke-width: 2; stroke: #000000" x1="495.774" y1="360" x2="280" y2="360"/>
    <polygon style="fill: #000000" points="495.774,365 511.774,360 495.774,355 "/>
    <polygon style="fill: none; fill-opacity:0; stroke-width: 2; stroke: #000000" points="495.774,365 511.774,360 495.774,355 "/>
    <text font-size="12.7998" style="fill: #000000;text-anchor:middle;font-family:sans-serif;font-style:normal;font-weight:normal" x="396.388" y="370">want_something()</text>
  </g>
  <g>
    <rect style="fill: #ffffff" x="455" y="379" width="129.45" height="36" rx="10" ry="10"/>
    <rect style="fill: none; fill-opacity:0; stroke-width: 2; stroke: #000000" x="455" y="379" width="129.45" height="36" rx="10" ry="10"/>
    <text font-size="12.8" style="fill: #000000;text-anchor:middle;font-family:sans-serif;font-style:normal;font-weight:normal" x="519.725" y="400.9">
      <tspan x="519.725" y="400.9">master_bad_com</tspan>
    </text>
  </g>
  <g>
    <line style="fill: none; fill-opacity:0; stroke-width: 2; stroke: #000000" x1="893.15" y1="440" x2="720" y2="440"/>
    <polygon style="fill: #000000" points="893.15,445 909.15,440 893.15,435 "/>
    <polygon style="fill: none; fill-opacity:0; stroke-width: 2; stroke: #000000" points="893.15,445 909.15,440 893.15,435 "/>
    <text font-size="12.7998" style="fill: #000000;text-anchor:middle;font-family:sans-serif;font-style:normal;font-weight:normal" x="815.074" y="450">receive_bad_key()</text>
  </g>
  <g>
    <line style="fill: none; fill-opacity:0; stroke-width: 2; stroke: #000000" x1="543.776" y1="1080" x2="910.15" y2="1080"/>
    <polygon style="fill: #000000" points="543.776,1075 527.776,1080 543.776,1085 "/>
    <polygon style="fill: none; fill-opacity:0; stroke-width: 2; stroke: #000000" points="543.776,1075 527.776,1080 543.776,1085 "/>
    <text font-size="12.7998" style="fill: #000000;text-anchor:middle;font-family:sans-serif;font-style:normal;font-weight:normal" x="718.462" y="1090">receive_good_key_confirm()</text>
  </g>
  <g>
    <rect style="fill: #ffffff" x="839" y="574" width="154.35" height="36" rx="10" ry="10"/>
    <rect style="fill: none; fill-opacity:0; stroke-width: 2; stroke: #000000" x="839" y="574" width="154.35" height="36" rx="10" ry="10"/>
    <text font-size="12.8" style="fill: #000000;text-anchor:middle;font-family:sans-serif;font-style:normal;font-weight:normal" x="916.175" y="595.9">
      <tspan x="916.175" y="595.9">slave_improve_angle</tspan>
    </text>
  </g>
  <g>
    <line style="fill: none; fill-opacity:0; stroke-width: 2; stroke: #000000" x1="893.15" y1="640" x2="720" y2="640"/>
    <polygon style="fill: #000000" points="893.15,645 909.15,640 893.15,635 "/>
    <polygon style="fill: none; fill-opacity:0; stroke-width: 2; stroke: #000000" points="893.15,645 909.15,640 893.15,635 "/>
    <text font-size="12.7998" style="fill: #000000;text-anchor:middle;font-family:sans-serif;font-style:normal;font-weight:normal" x="815.074" y="650">receive_bad_key()</text>
  </g>
  <g>
    <polyline style="fill: none; fill-opacity:0; stroke-width: 2; stroke: #000000" points="924.15,660 1041,660 1041,540 939.15,540 "/>
    <polygon style="fill: #000000" points="939.15,535 925.15,540 939.15,545 "/>
    <polygon style="fill: none; fill-opacity:0; stroke-width: 2; stroke: #000000" points="939.15,535 925.15,540 939.15,545 "/>
  </g>
  <text font-size="12.8" style="fill: #000000;text-anchor:start;font-family:sans-serif;font-style:normal;font-weight:normal" x="1047" y="597.75">
    <tspan x="1047" y="597.75">change_precession()</tspan>
  </text>
  <g>
    <polyline style="fill: none; fill-opacity:0; stroke-width: 2; stroke: #000000" points="924.15,460 962,460 962,500 939.15,500 "/>
    <polygon style="fill: #000000" points="939.15,495 925.15,500 939.15,505 "/>
    <polygon style="fill: none; fill-opacity:0; stroke-width: 2; stroke: #000000" points="939.15,495 925.15,500 939.15,505 "/>
  </g>
  <text font-size="12.8" style="fill: #000000;text-anchor:start;font-family:sans-serif;font-style:normal;font-weight:normal" x="966" y="484.75">
    <tspan x="966" y="484.75">stabilize_with_little_obliquity()</tspan>
  </text>
  <g>
    <polyline style="fill: none; fill-opacity:0; stroke-width: 2; stroke: #000000" points="910.15,640 860,640 860,740 895.15,740 "/>
    <polygon style="fill: #000000" points="895.15,745 909.15,740 895.15,735 "/>
    <polygon style="fill: none; fill-opacity:0; stroke-width: 2; stroke: #000000" points="895.15,745 909.15,740 895.15,735 "/>
  </g>
  <text font-size="12.8" style="fill: #000000;text-anchor:start;font-family:sans-serif;font-style:normal;font-weight:normal" x="742" y="725.5">
    <tspan x="742" y="725.5">best_orientation()</tspan>
  </text>
  <g>
    <rect style="fill: #ffffff" x="832" y="821.95" width="173.1" height="36" rx="10" ry="10"/>
    <rect style="fill: none; fill-opacity:0; stroke-width: 2; stroke: #000000" x="832" y="821.95" width="173.1" height="36" rx="10" ry="10"/>
    <text font-size="12.8" style="fill: #000000;text-anchor:middle;font-family:sans-serif;font-style:normal;font-weight:normal" x="918.55" y="843.85">
      <tspan x="918.55" y="843.85">slave_improve_distance</tspan>
    </text>
  </g>
  <text font-size="12.8" style="fill: #000000;text-anchor:start;font-family:sans-serif;font-style:normal;font-weight:normal" x="918.55" y="839.95">
    <tspan x="918.55" y="839.95"></tspan>
  </text>
  <g>
    <line style="fill: none; fill-opacity:0; stroke-width: 2; stroke: #000000" x1="893.15" y1="880" x2="720" y2="880"/>
    <polygon style="fill: #000000" points="893.15,885 909.15,880 893.15,875 "/>
    <polygon style="fill: none; fill-opacity:0; stroke-width: 2; stroke: #000000" points="893.15,885 909.15,880 893.15,875 "/>
    <text font-size="12.7998" style="fill: #000000;text-anchor:middle;font-family:sans-serif;font-style:normal;font-weight:normal" x="815.074" y="890">receive_bad_key()</text>
  </g>
  <g>
    <line style="fill: none; fill-opacity:0; stroke-width: 2; stroke: #000000" x1="893.15" y1="1000" x2="720" y2="1000"/>
    <polygon style="fill: #000000" points="893.15,1005 909.15,1000 893.15,995 "/>
    <polygon style="fill: none; fill-opacity:0; stroke-width: 2; stroke: #000000" points="893.15,1005 909.15,1000 893.15,995 "/>
    <text font-size="12.7998" style="fill: #000000;text-anchor:middle;font-family:sans-serif;font-style:normal;font-weight:normal" x="815.074" y="1010">receive_good_key()</text>
  </g>
  <polyline style="fill: none; fill-opacity:0; stroke-width: 2; stroke: #000000" points="910.15,920 860,920 860,1000 910.15,1000 "/>
  <g>
    <line style="fill: none; fill-opacity:0; stroke-width: 2; stroke: #000000" x1="703" y1="480" x2="526.776" y2="480"/>
    <polygon style="fill: #000000" points="703,485 719,480 703,475 "/>
    <polygon style="fill: none; fill-opacity:0; stroke-width: 2; stroke: #000000" points="703,485 719,480 703,475 "/>
    <text font-size="12.7998" style="fill: #000000;text-anchor:middle;font-family:sans-serif;font-style:normal;font-weight:normal" x="623.388" y="490">send_key_and_stabilize()</text>
  </g>
  <line style="fill: none; fill-opacity:0; stroke-width: 2; stroke: #000000" x1="720" y1="440" x2="720" y2="1000"/>
  <g>
    <rect style="fill: #ffffff" x="854" y="1022" width="125.6" height="36" rx="10" ry="10"/>
    <rect style="fill: none; fill-opacity:0; stroke-width: 2; stroke: #000000" x="854" y="1022" width="125.6" height="36" rx="10" ry="10"/>
    <text font-size="12.8" style="fill: #000000;text-anchor:middle;font-family:sans-serif;font-style:normal;font-weight:normal" x="916.8" y="1043.9">
      <tspan x="916.8" y="1043.9">slave_good_com</tspan>
    </text>
  </g>
  <polyline style="fill: none; fill-opacity:0; stroke-width: 2; stroke: #000000" points="526.776,1000 560,1000 560,1080 526.776,1080 "/>
  <g>
    <rect style="fill: #ffffff" x="450" y="1100" width="137.25" height="36" rx="10" ry="10"/>
    <rect style="fill: none; fill-opacity:0; stroke-width: 2; stroke: #000000" x="450" y="1100" width="137.25" height="36" rx="10" ry="10"/>
    <text font-size="12.8" style="fill: #000000;text-anchor:middle;font-family:sans-serif;font-style:normal;font-weight:normal" x="518.625" y="1121.9">
      <tspan x="518.625" y="1121.9">master_good_com</tspan>
    </text>
  </g>
</svg>
